<svg width="21" height="20" viewBox="0 0 21 20" fill="none" xmlns="http://www.w3.org/2000/svg">
<path d="M10.5482 13.4754L6.64204 17.3815C6.16911 17.838 5.5375 18.0931 4.88025 18.0931C4.22299 18.0931 3.59138 17.838 3.11846 17.3815C2.88651 17.1505 2.70246 16.876 2.57688 16.5736C2.4513 16.2713 2.38666 15.9471 2.38666 15.6198C2.38666 15.2924 2.4513 14.9682 2.57688 14.6659C2.70246 14.3636 2.88651 14.089 3.11846 13.858L7.0246 9.95182C7.21417 9.76225 7.32067 9.50513 7.32067 9.23703C7.32067 8.96894 7.21417 8.71182 7.0246 8.52225C6.83503 8.33268 6.57791 8.22618 6.30981 8.22618C6.04172 8.22618 5.7846 8.33268 5.59503 8.52225L1.68889 12.4385C0.901977 13.295 0.476393 14.4224 0.501012 15.5853C0.52563 16.7481 0.998548 17.8565 1.821 18.679C2.64346 19.5015 3.75186 19.9744 4.91472 19.999C6.07759 20.0236 7.20501 19.598 8.06154 18.8111L11.9777 14.905C12.1673 14.7154 12.2738 14.4583 12.2738 14.1902C12.2738 13.9221 12.1673 13.665 11.9777 13.4754C11.7882 13.2858 11.5311 13.1793 11.263 13.1793C10.9949 13.1793 10.7378 13.2858 10.5482 13.4754ZM19.186 1.31401C18.3391 0.47238 17.1936 0 15.9997 0C14.8057 0 13.6602 0.47238 12.8133 1.31401L8.89713 5.22015C8.80326 5.31402 8.72881 5.42545 8.67801 5.5481C8.6272 5.67074 8.60106 5.80219 8.60106 5.93493C8.60106 6.06768 8.6272 6.19913 8.67801 6.32177C8.72881 6.44442 8.80326 6.55585 8.89713 6.64972C8.991 6.74358 9.10243 6.81804 9.22508 6.86884C9.34772 6.91964 9.47917 6.94579 9.61192 6.94579C9.74466 6.94579 9.87611 6.91964 9.99875 6.86884C10.1214 6.81804 10.2328 6.74358 10.3267 6.64972L14.2328 2.74357C14.7058 2.28715 15.3374 2.03207 15.9946 2.03207C16.6519 2.03207 17.2835 2.28715 17.7564 2.74357C17.9884 2.97461 18.1724 3.24917 18.298 3.5515C18.4236 3.85383 18.4882 4.17799 18.4882 4.50537C18.4882 4.83274 18.4236 5.1569 18.298 5.45923C18.1724 5.76156 17.9884 6.03612 17.7564 6.26716L13.8503 10.1733C13.7559 10.2669 13.681 10.3782 13.6299 10.5009C13.5788 10.6236 13.5525 10.7552 13.5525 10.8881C13.5525 11.021 13.5788 11.1526 13.6299 11.2753C13.681 11.3979 13.7559 11.5093 13.8503 11.6029C13.9439 11.6972 14.0552 11.7721 14.1779 11.8232C14.3006 11.8743 14.4322 11.9007 14.5651 11.9007C14.698 11.9007 14.8296 11.8743 14.9522 11.8232C15.0749 11.7721 15.1863 11.6972 15.2798 11.6029L19.186 7.68666C20.0276 6.83977 20.5 5.6943 20.5 4.50033C20.5 3.30637 20.0276 2.16089 19.186 1.31401ZM7.24608 13.2539C7.34015 13.3472 7.45171 13.421 7.57437 13.4711C7.69703 13.5212 7.82837 13.5466 7.96086 13.5459C8.09336 13.5466 8.2247 13.5212 8.34736 13.4711C8.47002 13.421 8.58158 13.3472 8.67565 13.2539L13.6288 8.30077C13.8184 8.1112 13.9249 7.85408 13.9249 7.58598C13.9249 7.31789 13.8184 7.06077 13.6288 6.8712C13.4392 6.68163 13.1821 6.57513 12.914 6.57513C12.6459 6.57513 12.3888 6.68163 12.1992 6.8712L7.24608 11.8244C7.15172 11.9179 7.07683 12.0293 7.02571 12.152C6.9746 12.2746 6.94829 12.4062 6.94829 12.5391C6.94829 12.672 6.9746 12.8036 7.02571 12.9263C7.07683 13.049 7.15172 13.1603 7.24608 13.2539Z" fill="black"/>
</svg>
