<svg width="21" height="20" viewBox="0 0 21 20" fill="none" xmlns="http://www.w3.org/2000/svg">
<path id="Vector" d="M19.6652 13.7786L17.8794 11.9928C17.3471 11.4647 16.6285 11.167 15.8787 11.1638C15.1289 11.1606 14.4078 11.4522 13.871 11.9757C13.5846 12.2638 13.2067 12.443 12.8024 12.4826C12.3981 12.5221 11.9926 12.4196 11.6558 12.1925C10.3263 11.3052 9.18417 10.1653 8.29433 8.83749C8.07123 8.4969 7.97235 8.08981 8.01434 7.68482C8.05633 7.27983 8.23663 6.90169 8.52487 6.61411C9.04365 6.07679 9.33149 5.35774 9.32679 4.61086C9.32208 3.86398 9.02521 3.14861 8.4997 2.61786L6.71387 0.832012C6.17921 0.299185 5.45516 0 4.70034 0C3.94552 0 3.22146 0.299185 2.68681 0.832012L2.17297 1.34666C-0.505778 4.02544 -0.305278 9.65736 5.26815 15.2276C8.62877 18.5891 12.0113 19.9966 14.7542 19.9966C15.5616 20.0235 16.3663 19.8894 17.1214 19.6022C17.8764 19.315 18.5668 18.8803 19.1522 18.3236L19.6669 17.809C20.2006 17.2741 20.5003 16.5491 20.5 15.7935C20.4997 15.0378 20.1995 14.3131 19.6652 13.7786ZM18.5174 16.6611L18.0028 17.1758C15.8922 19.2863 11.2337 18.9008 6.41433 14.0806C1.59501 9.26042 1.20862 4.59853 3.31916 2.48798L3.82974 1.97415C4.05964 1.74508 4.37094 1.61647 4.69547 1.61647C5.02 1.61647 5.3313 1.74508 5.56119 1.97415L7.34703 3.76C7.57274 3.98684 7.70086 4.29293 7.70405 4.61292C7.70723 4.93292 7.58523 5.24149 7.36407 5.47279C6.81556 6.0248 6.4734 6.74855 6.39493 7.52279C6.31646 8.29702 6.50644 9.0747 6.93304 9.72555C7.9441 11.2386 9.24427 12.5368 10.7588 13.5456C11.4077 13.9723 12.1833 14.1634 12.9561 14.087C13.729 14.0106 14.4522 13.6714 15.005 13.126C15.2359 12.9022 15.5453 12.7779 15.8668 12.7799C16.1883 12.7819 16.4962 12.9099 16.7243 13.1365L18.5101 14.9224C18.6252 15.0358 18.7167 15.1709 18.7794 15.3198C18.8421 15.4688 18.8748 15.6286 18.8754 15.7902C18.8761 15.9518 18.8448 16.112 18.7834 16.2614C18.722 16.4109 18.6316 16.5467 18.5174 16.6611Z" fill="black"/>
</svg>
