<svg width="21" height="18" viewBox="0 0 21 18" fill="none" xmlns="http://www.w3.org/2000/svg">
<path id="telegram social media network chat" d="M19.9159 0.395789C19.6871 0.198508 19.4103 0.0688929 19.1151 0.0208508C18.82 -0.0271913 18.5177 0.00815279 18.2406 0.123091L1.33249 7.06933C1.08602 7.17441 0.875406 7.35209 0.72724 7.57993C0.579074 7.80777 0.5 8.07557 0.5 8.3495C0.5 8.62343 0.579074 8.89122 0.72724 9.11906C0.875406 9.34691 1.08602 9.52458 1.33249 9.62967L2.42477 10.0917C2.60486 10.1699 2.80783 10.1716 2.9891 10.0963C3.17037 10.021 3.31512 9.87499 3.39158 9.69027C3.42908 9.59828 3.44852 9.49959 3.44878 9.39987C3.44904 9.30015 3.43012 9.20135 3.39309 9.10916C3.35606 9.01696 3.30166 8.93318 3.23301 8.86261C3.16436 8.79205 3.08281 8.73609 2.99304 8.69795L2.18122 8.35707L18.7941 1.53961C18.8197 1.52354 18.849 1.51503 18.879 1.51503C18.909 1.51503 18.9383 1.52354 18.9639 1.53961C18.988 1.5606 19.0061 1.58783 19.0165 1.61846C19.0269 1.6491 19.0291 1.68203 19.0229 1.71383L15.9896 16.2426C15.9797 16.2943 15.9568 16.3425 15.9231 16.3824C15.8894 16.4222 15.8462 16.4524 15.7978 16.4699C15.7502 16.4892 15.6984 16.4952 15.6478 16.4872C15.5972 16.4793 15.5496 16.4576 15.5099 16.4244L9.60573 11.6976L15.3845 5.70584C15.5079 5.57438 15.5809 5.40159 15.5901 5.21926C15.5993 5.03693 15.544 4.85733 15.4344 4.71351C15.3249 4.56969 15.1684 4.47133 14.9937 4.43654C14.8191 4.40175 14.6381 4.43286 14.4841 4.52414L6.01156 9.67512C5.91746 9.71877 5.83333 9.7822 5.76461 9.86132C5.69589 9.94044 5.64411 10.0335 5.61263 10.1344C5.58114 10.2354 5.57064 10.342 5.58181 10.4473C5.59298 10.5527 5.62558 10.6545 5.67748 10.7461C5.72938 10.8378 5.79945 10.9172 5.88313 10.9793C5.96682 11.0414 6.06228 11.0848 6.16332 11.1066C6.26437 11.1285 6.36876 11.1283 6.46975 11.1062C6.57073 11.084 6.66607 11.0403 6.74958 10.978L10.3142 8.81915L8.57988 10.6296C8.42122 10.7826 8.2975 10.9697 8.21758 11.1776C8.13767 11.3854 8.10355 11.6088 8.11765 11.8318C8.13176 12.0548 8.19375 12.2718 8.29918 12.4673C8.40461 12.6628 8.55088 12.832 8.72749 12.9626L14.6317 17.6213C14.9424 17.8674 15.324 18.0006 15.7166 18C15.9256 17.9984 16.1328 17.96 16.3291 17.8864C16.6111 17.7825 16.8623 17.606 17.0587 17.3739C17.2551 17.1418 17.3902 16.8618 17.4509 16.5608L20.4621 2.04713C20.526 1.74693 20.5089 1.43451 20.4127 1.14353C20.3164 0.85255 20.1447 0.594024 19.9159 0.395789Z" fill="black"/>
</svg>
