<svg width="21" height="20" viewBox="0 0 21 20" fill="none" xmlns="http://www.w3.org/2000/svg">
<path id="Vector" d="M15.1687 12.01C14.9678 11.9101 13.6617 11.3109 13.4607 11.211C13.2598 11.1111 13.0588 11.1111 12.8579 11.3109C12.657 11.5106 12.2551 12.1099 12.0541 12.3096C11.9537 12.5094 11.7527 12.5094 11.5518 12.4095C10.8485 12.1099 10.1452 11.7104 9.54237 11.211C9.04002 10.7116 8.53766 10.1124 8.13578 9.51311C8.03531 9.31336 8.13578 9.11361 8.23625 9.01373C8.33672 8.91386 8.43719 8.71411 8.63813 8.61423C8.7386 8.51436 8.83907 8.31461 8.83907 8.21473C8.93954 8.11486 8.93954 7.91511 8.83907 7.81523C8.7386 7.71536 8.23625 6.51685 8.03531 6.01748C7.93484 5.31835 7.7339 5.31835 7.53295 5.31835H7.0306C6.82966 5.31835 6.52825 5.5181 6.42778 5.61798C5.82495 6.21723 5.52354 6.91635 5.52354 7.71536C5.62401 8.61423 5.92542 9.51311 6.52825 10.3121C7.63342 11.9101 9.04002 13.2085 10.748 14.0075C11.2504 14.2072 11.6523 14.407 12.1546 14.5069C12.657 14.7066 13.1593 14.7066 13.7621 14.6067C14.4654 14.5069 15.0683 14.0075 15.4701 13.4082C15.6711 13.0087 15.6711 12.6092 15.5706 12.2097L15.1687 12.01ZM17.6805 2.92135C13.7621 -0.973783 7.43248 -0.973783 3.51412 2.92135C0.299058 6.11735 -0.303766 11.0112 1.90659 14.9064L0.5 20L5.82495 18.6017C7.33201 19.4007 8.93954 19.8002 10.5471 19.8002C16.073 19.8002 20.4937 15.4057 20.4937 9.91261C20.5942 7.31585 19.489 4.81898 17.6805 2.92135ZM14.9678 16.9039C13.6617 17.7029 12.1546 18.2022 10.5471 18.2022C9.04002 18.2022 7.63342 17.8027 6.3273 17.1036L6.02589 16.9039L2.9113 17.7029L3.71506 14.7066L3.51412 14.407C1.10282 10.412 2.30847 5.41823 6.22683 2.92135C10.1452 0.42447 15.1687 1.72285 17.58 5.5181C19.9913 9.41323 18.8862 14.5069 14.9678 16.9039Z" fill="black"/>
</svg>
