<svg width="17" height="17" viewBox="0 0 17 17" fill="none" xmlns="http://www.w3.org/2000/svg">
<g id="&#240;&#159;&#166;&#134; icon &#34;clock&#34;">
<g id="Group">
<path id="Vector" d="M8.34804 16.7403C3.74303 16.7403 0 12.9972 0 8.39223C0 3.78722 3.74303 0.0441895 8.34804 0.0441895C12.953 0.0441895 16.6961 3.78722 16.6961 8.39223C16.6961 12.9972 12.953 16.7403 8.34804 16.7403ZM8.34804 1.20903C4.38757 1.20903 1.16484 4.43176 1.16484 8.39223C1.16484 12.3527 4.38757 15.5754 8.34804 15.5754C12.3085 15.5754 15.5312 12.3527 15.5312 8.39223C15.5312 4.43176 12.3085 1.20903 8.34804 1.20903Z" fill="#292D32"/>
<path id="Vector_2" d="M11.2289 11.4441C11.1279 11.4441 11.027 11.4208 10.9338 11.3586L8.52643 9.922C7.92848 9.56478 7.48584 8.78045 7.48584 8.08931V4.90542C7.48584 4.58703 7.74987 4.323 8.06826 4.323C8.38665 4.323 8.65068 4.58703 8.65068 4.90542V8.08931C8.65068 8.36888 8.88365 8.78045 9.12439 8.92024L11.5317 10.3569C11.8113 10.52 11.8967 10.8772 11.7336 11.1567C11.6171 11.3431 11.423 11.4441 11.2289 11.4441Z" fill="#292D32"/>
</g>
</g>
</svg>
